<?xml version="1.0" encoding="UTF-8"?>
<svg id="a" data-name="Ebene 1" xmlns="http://www.w3.org/2000/svg">
  <path class="b" d="m177.367,275.189c-12.259,0-23.561-4.749-31.823-13.371-1.472-1.471-2.981-3.358-4.44-5.183-.486-.608-1.221-.958-1.992-.958-.057,0-.114.002-.172.005-.833.057-1.587.518-2.017,1.234-.989,1.649-2.383,3.422-3.824,4.862-8.646,8.647-19.96,13.41-31.86,13.41-5.89,0-11.621-1.099-17.032-3.263-17.029-7.247-27.833-23.574-27.473-41.574,0-2.137.355-4.265.731-6.518.136-.812-.129-1.641-.712-2.224-.482-.482-1.133-.747-1.804-.747-.139,0-.28.011-.419.034-2.088.349-4.215.349-6.468.349h-.764c-18.025,0-34.068-10.644-40.872-27.115-7.145-16.789-3.341-36.057,9.677-49.152.583-.47,1.131-.938,1.667-1.396,1.162-.993,2.166-1.851,3.294-2.527.716-.43,1.177-1.183,1.232-2.017.056-.833-.3-1.642-.952-2.163l-.815-.649c-1.5-1.191-2.796-2.22-4.33-3.753C2.891,119.533-1.09,100.371,6.033,83.632c6.813-16.497,23.007-27.14,41.265-27.14h.764c2.253,0,4.38,0,6.468.348.14.023.28.035.419.035.671,0,1.322-.265,1.804-.748.583-.583.848-1.411.712-2.224-.376-2.252-.731-4.379-.731-6.466-.361-18.051,10.443-34.379,27.523-41.646,5.356-2.143,11.086-3.239,16.98-3.239,11.901,0,23.216,4.761,31.86,13.406,1.442,1.443,2.836,3.216,3.825,4.865.43.717,1.183,1.177,2.017,1.233.058.004.115.006.172.006.771,0,1.506-.35,1.992-.958,1.46-1.827,2.971-3.715,4.402-5.146,8.3-8.659,19.602-13.407,31.861-13.407,5.895,0,11.625,1.097,17.032,3.26,16.606,7.067,27.392,23.319,27.472,41.422-.186,1.177-.281,2.326-.375,3.438-.094,1.125-.183,2.188-.356,3.231-.136.813.13,1.641.713,2.224.482.482,1.133.748,1.804.748.14,0,.279-.012.42-.035,2.087-.348,4.214-.348,6.466-.348h.766c18.025,0,34.068,10.643,40.871,27.115,6.871,16.996,2.896,36.175-10.131,48.843-.076.074-.147.153-.214.235-.918,1.147-2.053,1.995-3.366,2.976-.525.392-1.058.791-1.591,1.217-.652.522-1.008,1.33-.952,2.163.057.833.517,1.587,1.232,2.017,1.655.993,3.428,2.388,4.864,3.825,13.044,13.046,17.031,32.228,10.157,48.868-6.755,16.71-22.796,27.497-40.871,27.497h-.766c-2.252,0-4.379,0-6.466-.349-.141-.023-.28-.034-.42-.034-.671,0-1.321.265-1.804.747-.583.582-.849,1.41-.713,2.224.174,1.043.263,2.106.356,3.231.094,1.113.189,2.262.375,3.438-.08,18.103-10.865,34.354-27.523,41.442-5.359,2.144-11.09,3.242-16.98,3.242Zm-98.591-67.35c-6.066,6.065-9.545,14.113-9.545,22.079-.41,13.049,7.266,24.816,19.556,29.901,3.879,1.605,7.995,2.42,12.233,2.42,8.666,0,16.948-3.47,22.723-9.519,5.954-5.953,9.123-13.853,9.123-22.803v-44.05c2.064.27,4.171.406,6.294.406,2.152,0,4.332-.14,6.512-.418l-.312,13.396.383,30.697c0,8.918,3.036,16.686,8.781,22.43,6.058,6.335,14.191,9.846,22.865,9.846,4.138,0,8.191-.81,12.05-2.406,12.289-5.085,19.965-16.853,19.554-29.981,0-7.885-3.479-15.933-9.545-21.999l-31.197-31.557c3.37-2.631,6.391-5.649,9.02-9.014l31.184,31.542c5.732,6.145,13.731,9.558,22.473,9.558,13.038,0,24.345-7.482,29.508-19.527,4.964-12,2.193-25.704-7.046-34.944-5.908-5.908-13.886-9.162-22.462-9.162h-44.431c.544-4.132.544-8.366,0-12.496h44.431c8.575,0,16.553-3.254,22.462-9.164,9.239-9.238,12.011-22.943,7.059-34.914-4.993-12.063-16.158-19.557-29.138-19.557-8.577,0-16.69,3.391-22.845,9.547l-31.126,31.483c-2.586-3.51-5.585-6.589-9.074-9.316l31.184-31.185c6.066-6.066,9.546-14.114,9.546-22.079.409-13.048-7.266-24.817-19.555-29.902-3.88-1.605-7.968-2.419-12.151-2.419-8.569,0-16.654,3.365-22.764,9.476-5.767,6.176-8.781,13.921-8.781,22.462l-.383,30.956.312,13.488c-2.18-.278-4.359-.418-6.512-.418-2.124,0-4.23.136-6.294.407v-44.049c0-8.95-3.169-16.85-9.164-22.845-5.723-6.134-13.722-9.546-22.462-9.546-4.135,0-8.315.834-12.425,2.478-12.317,5.097-19.993,16.866-19.582,29.994-.001,7.886,3.478,15.933,9.544,21.999l31.555,31.198c-3.506,2.753-6.622,5.938-9.082,9.283l-31.096-31.454c-5.651-6.055-13.86-9.557-22.473-9.557-13.452,0-24.91,7.494-29.903,19.556-5.006,12.101-2.069,25.821,7.481,34.955,5.869,5.87,13.71,9.124,22.039,9.124h44.431c-.544,4.13-.544,8.364,0,12.496h-44.431c-8.33,0-16.171,3.254-22.08,9.162-9.509,9.096-12.446,22.816-7.44,34.915,5.097,11.892,16.679,19.557,29.52,19.557,8.33,0,16.308-3.391,22.462-9.548l31.554-31.554c2.818,3.683,5.814,6.722,8.953,9.081l-31.492,31.491Z"/>
  <circle class="b" cx="139.118" cy="138.451" r="49.757"/>
</svg>